<svg width="66" height="66" viewBox="0 0 66 66" fill="none" xmlns="http://www.w3.org/2000/svg">
<path d="M33 0C14.8032 0 0 14.8032 0 33C0 51.1968 14.8032 66 33 66C51.1968 66 66 51.1968 66 33C66 14.8032 51.1968 0 33 0ZM33 63.871C15.9784 63.871 2.12903 50.0216 2.12903 33C2.12903 15.9784 15.9784 2.12903 33 2.12903C48.6686 2.12903 61.6387 13.8664 63.6038 29.0081C63.195 28.2054 62.3743 27.6774 61.4375 27.6774C60.6583 27.6774 59.9195 28.0543 59.4617 28.6866C59.4192 28.7462 59.3532 28.8228 59.2989 28.892C57.8777 19.6552 51.7632 11.8789 42.9841 8.32345L42.9628 8.37561C40.8136 5.86016 37.6253 4.25806 34.0645 4.25806C31.0743 4.25806 28.3513 5.3939 26.2786 7.2451C16.3776 9.82336 8.76523 18.0531 6.864 28.0245C6.49355 27.8073 6.07413 27.6774 5.63555 27.6774C4.49439 27.6774 3.5161 28.4535 3.25742 29.5637L3.23613 29.684C3.2159 29.8554 2.78797 33.9038 5.57168 37.026C5.97513 37.4784 6.435 37.8734 6.92574 38.2374C9.40394 50.6667 20.2279 59.6129 33 59.6129C45.3324 59.6129 56.1415 50.9776 58.9114 39.0188C59.9099 38.495 60.7796 37.8361 61.5003 37.0271C63.195 35.1258 63.6975 32.8861 63.8284 31.3819C63.8561 31.9185 63.871 32.4571 63.871 33C63.871 50.0216 50.0216 63.871 33 63.871ZM38.3779 52.0091C37.4007 51.3033 35.129 49.1785 35.129 44.7182C35.129 43.9603 35.195 43.2194 35.327 42.4966C36.0275 43.7889 36.8759 44.9354 37.8659 45.9254C40.8114 48.8709 43.8527 50.2963 46.8855 50.1015C49.401 49.9577 51.3246 48.7548 52.4838 47.7893C47.9522 53.7187 40.8082 57.4839 33 57.4839C25.7645 57.4839 19.2166 54.3531 14.7084 49.2892C15.6314 49.7097 16.7076 50.0312 17.9275 50.1004C20.8698 50.276 23.8079 48.9582 26.6651 46.2021C26.912 49.6352 28.0436 52.2699 30.0375 54.0487C32.3868 56.1436 35.26 56.4204 36.6119 56.4204C37.0569 56.4204 37.3379 56.3906 37.3805 56.3853L37.5008 56.364C38.6111 56.1053 39.3871 55.127 39.3871 53.9859C39.3871 53.2056 39.0103 52.4679 38.3779 52.0091ZM52.1698 38.3226C45.2728 38.3226 41.2766 34.4467 41.2702 34.4467L39.3871 32.1888V35.129C39.3871 37.2474 40.4506 39.4776 42.3816 41.4086C46.2319 45.259 50.1653 45.1057 51.6759 44.864C51.7802 44.8491 51.8728 44.8789 51.9452 44.9513C52.0463 45.0525 52.0548 45.1908 52.0123 45.2941C51.6759 45.6795 49.681 47.8181 46.7386 47.9767C44.3509 48.1012 41.8578 46.9079 39.369 44.4191C37.967 43.016 36.8865 41.2255 36.1595 39.0976L35.277 36.514L34.1784 39.0135C33.3971 40.7923 33 42.7116 33 44.7182C33 50.1611 35.888 52.8373 37.1293 53.7346C37.2123 53.7943 37.2581 53.8837 37.2581 53.9859C37.2581 54.1296 37.1644 54.2339 37.0601 54.2765C36.5576 54.3127 33.6664 54.4319 31.4533 52.4594C29.6542 50.8541 28.7419 48.2503 28.7419 44.7182C28.7419 44.2892 28.7664 43.8538 28.8196 43.3865L29.2923 39.154L26.8833 42.6658C26.4245 43.3333 25.9529 43.907 25.4409 44.4191C22.951 46.909 20.4579 48.1034 18.0712 47.9767C15.1236 47.8191 13.1276 45.6731 12.7976 45.2941C12.7561 45.1908 12.7646 45.0514 12.8647 44.9513C12.9371 44.8789 13.035 44.8449 13.1319 44.864C14.6445 45.1067 18.5779 45.259 22.4283 41.4086C24.0016 39.8353 25.1471 38.0117 25.8347 35.9838L26.9674 32.6445L24.1752 34.798C22.0951 36.4065 18.7962 38.3226 14.9032 38.3226C11.3818 38.3226 8.78332 37.4156 7.1759 35.6272C5.20548 33.4322 5.31087 30.5048 5.34494 30.0034C5.41732 29.8256 5.74413 29.7373 5.88571 29.9353C6.78416 31.1765 9.46036 34.0645 14.9032 34.0645C19.5807 34.0645 22.6891 31.9163 24.1273 30.6368L24.4839 30.3185V15.9677C24.4839 10.6845 28.7813 6.3871 34.0645 6.3871C39.3477 6.3871 43.6452 10.6845 43.6452 15.9677V31.2276L44.0944 31.5459C45.7178 32.6945 48.4366 34.0645 52.1698 34.0645C57.6127 34.0645 60.2889 31.1765 61.1863 29.9353C61.3321 29.7351 61.6557 29.8256 61.7292 30.0034C61.7664 30.5069 61.8846 33.3971 59.912 35.6102C58.3057 37.4103 55.7019 38.3226 52.1698 38.3226ZM56.4736 39.9502C55.9169 41.8323 55.1313 43.6058 54.1658 45.26C54.1903 44.6011 53.9476 43.9422 53.4526 43.4472C52.9022 42.8947 52.1134 42.6381 51.3406 42.7616C50.1557 42.9575 47.0442 43.0586 43.8879 39.9023C43.412 39.4265 42.7627 38.6866 42.2645 37.7797C44.3786 39.0454 47.7318 40.4516 52.1698 40.4516C53.7559 40.4516 55.1909 40.2824 56.4736 39.9502ZM11.3605 43.4472C11.2381 43.5696 11.1359 43.7037 11.0444 43.8442C10.3812 42.4944 9.83294 41.0733 9.42203 39.5851C10.9837 40.161 12.8146 40.4516 14.9032 40.4516C17.5837 40.4516 19.9937 39.6841 22.0014 38.6813C21.6735 39.105 21.3137 39.5138 20.9241 39.9034C17.7689 43.0586 14.6616 42.9522 13.4693 42.7627C12.6975 42.636 11.9109 42.8947 11.3605 43.4472ZM8.71839 29.8597C9.84039 21.1008 15.7485 13.6013 23.8164 10.3141C22.8871 11.9918 22.3548 13.9175 22.3548 15.9677V29.3498C21.0231 30.4335 18.5215 31.9355 14.9032 31.9355C11.8204 31.9355 9.87232 30.8529 8.71839 29.8597ZM44.9279 11.6192C51.9186 15.5015 56.5695 22.5145 57.3561 30.5889C56.1703 31.317 54.4926 31.9355 52.1698 31.9355C49.3212 31.9355 47.1762 31.003 45.7742 30.1098V15.9677C45.7742 14.4306 45.4687 12.9647 44.9279 11.6192Z"/>
<path d="M31.3116 23.6025L29.8063 25.1077L28.3011 23.6025L26.7959 25.1077L28.3011 26.6129L26.7959 28.1182L28.3011 29.6234L29.8063 28.1182L31.3116 29.6234L32.8168 28.1182L31.3116 26.6129L32.8168 25.1077L31.3116 23.6025Z"/>
<path d="M39.9566 23.7313L38.4514 25.2365L36.9461 23.7313L35.4409 25.2365L36.9461 26.7417L35.4409 28.2469L36.9461 29.7522L38.4514 28.2469L39.9566 29.7522L41.4618 28.2469L39.9566 26.7417L41.4618 25.2365L39.9566 23.7313Z"/>
<path d="M26.6128 15.9677H28.7418C28.7418 13.0329 31.1295 10.6451 34.0644 10.6451V8.51611C29.9564 8.51611 26.6128 11.8598 26.6128 15.9677Z"/>
<path d="M28.7418 18.0968H26.6128V20.2258H28.7418V18.0968Z"/>
</svg>
