<svg width="209" height="55" viewBox="0 0 209 55" fill="none" xmlns="http://www.w3.org/2000/svg">
<path d="M70.404 25.844C69.324 25.844 68.508 26.132 67.956 26.708C67.404 27.26 67.056 28.22 66.912 29.588C66.912 29.78 66.996 29.876 67.164 29.876H73.248C73.464 29.876 73.572 29.768 73.572 29.552C73.476 27.08 72.42 25.844 70.404 25.844ZM71.304 41.36C68.04 41.36 65.52 40.532 63.744 38.876C61.992 37.22 61.116 34.808 61.116 31.64C61.116 28.496 61.896 26.096 63.456 24.44C65.04 22.76 67.32 21.92 70.296 21.92C76.008 21.92 78.912 25.04 79.008 31.28C79.008 31.856 78.78 32.348 78.324 32.756C77.892 33.14 77.388 33.332 76.812 33.332H67.2C66.96 33.332 66.864 33.44 66.912 33.656C67.104 34.976 67.608 35.924 68.424 36.5C69.264 37.052 70.512 37.328 72.168 37.328C73.248 37.328 74.412 37.172 75.66 36.86C76.164 36.74 76.608 36.836 76.992 37.148C77.4 37.46 77.604 37.868 77.604 38.372V38.444C77.604 39.044 77.412 39.596 77.028 40.1C76.668 40.58 76.2 40.868 75.624 40.964C74.232 41.228 72.792 41.36 71.304 41.36ZM81.6743 41C81.2183 41 80.8703 40.808 80.6303 40.424C80.4143 40.04 80.4263 39.644 80.6663 39.236L84.9863 31.712C85.0823 31.544 85.0823 31.376 84.9863 31.208L80.8463 24.044C80.6063 23.636 80.5943 23.24 80.8103 22.856C81.0503 22.472 81.3983 22.28 81.8543 22.28H84.0143C84.6143 22.28 85.1783 22.46 85.7063 22.82C86.2343 23.156 86.6303 23.6 86.8943 24.152L88.9103 28.508C88.9103 28.532 88.9223 28.544 88.9463 28.544C88.9703 28.544 88.9823 28.532 88.9823 28.508L90.9983 24.152C91.2383 23.6 91.6223 23.156 92.1503 22.82C92.6783 22.46 93.2543 22.28 93.8783 22.28H95.8943C96.3263 22.28 96.6503 22.472 96.8663 22.856C97.1063 23.24 97.1183 23.636 96.9023 24.044L92.7623 31.208C92.6423 31.376 92.6423 31.544 92.7623 31.712L97.0823 39.236C97.2983 39.644 97.2863 40.04 97.0463 40.424C96.8303 40.808 96.5063 41 96.0743 41H93.9143C93.2903 41 92.7023 40.832 92.1503 40.496C91.6223 40.16 91.2383 39.716 90.9983 39.164L88.8383 34.484C88.8383 34.46 88.8263 34.448 88.8023 34.448C88.7783 34.448 88.7663 34.46 88.7663 34.484L86.6063 39.164C86.3423 39.716 85.9343 40.16 85.3823 40.496C84.8543 40.832 84.2903 41 83.6903 41H81.6743ZM105.718 29.408V33.872C105.718 34.664 106.078 35.396 106.798 36.068C107.542 36.716 108.382 37.04 109.318 37.04C110.422 37.04 111.298 36.596 111.946 35.708C112.594 34.796 112.918 33.44 112.918 31.64C112.918 28.04 111.718 26.24 109.318 26.24C108.382 26.24 107.542 26.576 106.798 27.248C106.078 27.896 105.718 28.616 105.718 29.408ZM102.082 48.92C101.53 48.92 101.05 48.716 100.642 48.308C100.234 47.9 100.03 47.42 100.03 46.868V24.332C100.03 23.78 100.234 23.3 100.642 22.892C101.05 22.484 101.53 22.28 102.082 22.28H103.522C104.098 22.28 104.59 22.484 104.998 22.892C105.406 23.276 105.622 23.756 105.646 24.332V24.62C105.646 24.644 105.658 24.656 105.682 24.656L105.754 24.584C107.29 22.808 109.138 21.92 111.298 21.92C113.53 21.92 115.306 22.76 116.626 24.44C117.97 26.12 118.642 28.52 118.642 31.64C118.642 34.664 117.946 37.04 116.554 38.768C115.186 40.496 113.434 41.36 111.298 41.36C109.306 41.36 107.53 40.628 105.97 39.164C105.946 39.14 105.922 39.128 105.898 39.128C105.874 39.128 105.862 39.14 105.862 39.164V46.868C105.862 47.42 105.658 47.9 105.25 48.308C104.842 48.716 104.362 48.92 103.81 48.92H102.082ZM124.551 41C123.999 41 123.519 40.796 123.111 40.388C122.703 39.98 122.499 39.5 122.499 38.948V16.052C122.499 15.5 122.703 15.02 123.111 14.612C123.519 14.204 123.999 14 124.551 14H126.567C127.119 14 127.599 14.204 128.007 14.612C128.415 15.02 128.619 15.5 128.619 16.052V38.948C128.619 39.5 128.415 39.98 128.007 40.388C127.599 40.796 127.119 41 126.567 41H124.551ZM144.371 27.32C143.795 26.432 142.907 25.988 141.707 25.988C140.507 25.988 139.607 26.432 139.007 27.32C138.431 28.208 138.143 29.648 138.143 31.64C138.143 33.632 138.431 35.072 139.007 35.96C139.607 36.848 140.507 37.292 141.707 37.292C142.907 37.292 143.795 36.848 144.371 35.96C144.971 35.072 145.271 33.632 145.271 31.64C145.271 29.648 144.971 28.208 144.371 27.32ZM148.655 38.804C146.999 40.508 144.683 41.36 141.707 41.36C138.731 41.36 136.415 40.508 134.759 38.804C133.103 37.1 132.275 34.712 132.275 31.64C132.275 28.568 133.103 26.18 134.759 24.476C136.415 22.772 138.731 21.92 141.707 21.92C144.683 21.92 146.999 22.772 148.655 24.476C150.311 26.18 151.139 28.568 151.139 31.64C151.139 34.712 150.311 37.1 148.655 38.804ZM155.925 41C155.373 41 154.893 40.796 154.485 40.388C154.101 39.98 153.909 39.5 153.909 38.948V24.332C153.909 23.78 154.101 23.3 154.485 22.892C154.893 22.484 155.373 22.28 155.925 22.28H157.689C158.241 22.28 158.709 22.484 159.093 22.892C159.501 23.3 159.705 23.78 159.705 24.332V25.844C159.705 25.868 159.717 25.88 159.741 25.88C159.789 25.88 159.813 25.868 159.813 25.844C161.301 23.852 163.377 22.688 166.041 22.352C166.593 22.28 167.061 22.448 167.445 22.856C167.853 23.264 168.057 23.756 168.057 24.332V24.62C168.057 25.172 167.853 25.652 167.445 26.06C167.061 26.468 166.581 26.696 166.005 26.744C164.061 26.96 162.549 27.632 161.469 28.76C160.413 29.864 159.885 31.304 159.885 33.08V38.948C159.885 39.5 159.681 39.98 159.273 40.388C158.889 40.796 158.421 41 157.869 41H155.925ZM178.689 25.844C177.609 25.844 176.793 26.132 176.241 26.708C175.689 27.26 175.341 28.22 175.197 29.588C175.197 29.78 175.281 29.876 175.449 29.876H181.533C181.749 29.876 181.857 29.768 181.857 29.552C181.761 27.08 180.705 25.844 178.689 25.844ZM179.589 41.36C176.325 41.36 173.805 40.532 172.029 38.876C170.277 37.22 169.401 34.808 169.401 31.64C169.401 28.496 170.181 26.096 171.741 24.44C173.325 22.76 175.605 21.92 178.581 21.92C184.293 21.92 187.197 25.04 187.293 31.28C187.293 31.856 187.065 32.348 186.609 32.756C186.177 33.14 185.673 33.332 185.097 33.332H175.485C175.245 33.332 175.149 33.44 175.197 33.656C175.389 34.976 175.893 35.924 176.709 36.5C177.549 37.052 178.797 37.328 180.453 37.328C181.533 37.328 182.697 37.172 183.945 36.86C184.449 36.74 184.893 36.836 185.277 37.148C185.685 37.46 185.889 37.868 185.889 38.372V38.444C185.889 39.044 185.697 39.596 185.313 40.1C184.953 40.58 184.485 40.868 183.909 40.964C182.517 41.228 181.077 41.36 179.589 41.36ZM192.278 41C191.726 41 191.246 40.796 190.838 40.388C190.454 39.98 190.262 39.5 190.262 38.948V24.332C190.262 23.78 190.454 23.3 190.838 22.892C191.246 22.484 191.726 22.28 192.278 22.28H194.042C194.594 22.28 195.062 22.484 195.446 22.892C195.854 23.3 196.058 23.78 196.058 24.332V25.844C196.058 25.868 196.07 25.88 196.094 25.88C196.142 25.88 196.166 25.868 196.166 25.844C197.654 23.852 199.73 22.688 202.394 22.352C202.946 22.28 203.414 22.448 203.798 22.856C204.206 23.264 204.41 23.756 204.41 24.332V24.62C204.41 25.172 204.206 25.652 203.798 26.06C203.414 26.468 202.934 26.696 202.358 26.744C200.414 26.96 198.902 27.632 197.822 28.76C196.766 29.864 196.238 31.304 196.238 33.08V38.948C196.238 39.5 196.034 39.98 195.626 40.388C195.242 40.796 194.774 41 194.222 41H192.278Z" fill="black"/>
<path d="M50.4167 27.5H41.25L34.375 48.125L20.625 6.875L13.75 27.5H4.58337" stroke="url(#paint0_linear)" stroke-width="5" stroke-linecap="round" stroke-linejoin="round"/>
<defs>
<linearGradient id="paint0_linear" x1="13" y1="22" x2="27.5" y2="48.125" gradientUnits="userSpaceOnUse">
<stop stop-color="#3E97FF"/>
<stop offset="1" stop-color="#D459FF"/>
</linearGradient>
</defs>
</svg>
